<?xml version="1.0" encoding="iso-8859-1"?>
<!-- Generator: Adobe Illustrator 22.0.1, SVG Export Plug-In . SVG Version: 6.00 Build 0)  -->
<svg version="1.1" id="&#x56FE;&#x5C42;_1" xmlns="http://www.w3.org/2000/svg" xmlns:xlink="http://www.w3.org/1999/xlink" x="0px"
	 y="0px" viewBox="0 0 44 44" xml:space="preserve">
<g>
	<g id="&#x5706;&#x89D2;&#x77E9;&#x5F62;_5_&#x62F7;&#x8D1D;_1_">
		<g>
			<path style="fill:#6A7B8F;" d="M17,26c1.103,0,2,0.897,2,2v9c0,1.103-0.897,2-2,2H8c-1.103,0-2-0.897-2-2v-9c0-1.103,0.897-2,2-2
				H17 M17,24H8c-2.209,0-4,1.791-4,4v9c0,2.209,1.791,4,4,4h9c2.209,0,4-1.791,4-4v-9C21,25.791,19.209,24,17,24L17,24z"/>
		</g>
	</g>
	<g id="&#x5706;&#x89D2;&#x77E9;&#x5F62;_5_&#x62F7;&#x8D1D;_2_1_">
		<g>
			<path style="fill:#6A7B8F;" d="M37,6c1.103,0,2,0.897,2,2v9c0,1.103-0.897,2-2,2h-9c-1.103,0-2-0.897-2-2V8c0-1.103,0.897-2,2-2
				H37 M37,4h-9c-2.209,0-4,1.791-4,4v9c0,2.209,1.791,4,4,4h9c2.209,0,4-1.791,4-4V8C41,5.791,39.209,4,37,4L37,4z"/>
		</g>
	</g>
	<g id="&#x692D;&#x5706;_1139_1_">
		<g>
			<path style="fill:#6A7B8F;" d="M12.5,6c3.584,0,6.5,2.916,6.5,6.5c0,3.584-2.916,6.5-6.5,6.5S6,16.084,6,12.5
				C6,8.916,8.916,6,12.5,6 M12.5,4C7.806,4,4,7.806,4,12.5c0,4.694,3.806,8.5,8.5,8.5s8.5-3.806,8.5-8.5C21,7.806,17.194,4,12.5,4
				L12.5,4z"/>
		</g>
	</g>
	<g id="&#x5706;&#x89D2;&#x77E9;&#x5F62;_5_1_">
		<g>
			<path style="fill:#6A7B8F;" d="M37,26c1.103,0,2,0.897,2,2v9c0,1.103-0.897,2-2,2h-9c-1.103,0-2-0.897-2-2v-9
				c0-1.103,0.897-2,2-2H37 M37,24h-9c-2.209,0-4,1.791-4,4v9c0,2.209,1.791,4,4,4h9c2.209,0,4-1.791,4-4v-9
				C41,25.791,39.209,24,37,24L37,24z"/>
		</g>
	</g>
	<g id="_x23__1_" style="opacity:0;">
		<g>
			<rect x="0" y="0" style="fill-rule:evenodd;clip-rule:evenodd;fill:#AA89BD;" width="44" height="44"/>
		</g>
	</g>
</g>
</svg>
