<?xml version="1.0" encoding="iso-8859-1"?>
<!-- Generator: Adobe Illustrator 22.0.1, SVG Export Plug-In . SVG Version: 6.00 Build 0)  -->
<svg version="1.1" id="&#x56FE;&#x5C42;_1" xmlns="http://www.w3.org/2000/svg" xmlns:xlink="http://www.w3.org/1999/xlink" x="0px"
	 y="0px" viewBox="0 0 44 44" style="    stroke: none;enable-background:new 0 0 44 44;" xml:space="preserve">
<g>
	<g id="&#x5706;&#x89D2;&#x77E9;&#x5F62;_1143">
		<g>
			<path style="fill-rule:evenodd;clip-rule:evenodd;fill:#0EA5F0;" d="M5.006,38c0.175-6.563,4.12-12.491,10.151-15.189
				l1.197-0.535l-0.833-1.013c-1.384-1.683-2.146-3.834-2.146-6.06C13.375,10.128,17.244,6,22,6s8.625,4.128,8.625,9.203
				c0,2.194-0.741,4.322-2.087,5.992l-0.82,1.017l1.196,0.526c6.075,2.67,10.02,8.648,10.085,15.262H5.006z"/>
		</g>
		<g>
			<path style="fill:#0EA5F0;" d="M22,7c4.204,0,7.625,3.68,7.625,8.203c0,1.966-0.663,3.872-1.866,5.365l-1.64,2.035l2.392,1.051
				c5.404,2.375,9.016,7.532,9.445,13.346H6.066c0.525-5.766,4.136-10.877,9.499-13.276l2.393-1.071l-1.665-2.025
				c-1.237-1.504-1.919-3.431-1.919-5.425C14.375,10.68,17.796,7,22,7 M22,5c-5.316,0-9.625,4.568-9.625,10.203
				c0,2.565,0.9,4.903,2.374,6.695C8.418,24.731,4,31.072,4,38.456V39h36v-0.831c0-7.309-4.396-13.583-10.684-16.347
				c1.437-1.783,2.309-4.091,2.309-6.62C31.625,9.568,27.316,5,22,5L22,5z"/>
		</g>
	</g>
	
		<path style="fill-rule:evenodd;clip-rule:evenodd;fill:none;stroke:#FFFFFF;stroke-width:2;stroke-linecap:round;stroke-linejoin:round;stroke-miterlimit:100;" d="
		M26,15c0,1.6-1.705,3-4,3s-4-1.412-4-3"/>
	<g id="_x23__&#x62F7;&#x8D1D;_2_" style="opacity:0;">
		<g>
			<rect x="0" y="0" style="fill-rule:evenodd;clip-rule:evenodd;fill:#AA89BD;" width="44" height="44"/>
		</g>
	</g>
</g>
</svg>
