<?xml version="1.0" encoding="iso-8859-1"?>
<!-- Generator: Adobe Illustrator 22.0.1, SVG Export Plug-In . SVG Version: 6.00 Build 0)  -->
<svg version="1.1" id="&#x56FE;&#x5C42;_1" xmlns="http://www.w3.org/2000/svg" xmlns:xlink="http://www.w3.org/1999/xlink" x="0px"
	 y="0px" viewBox="0 0 44 44" style="enable-background:new 0 0 44 44;" xml:space="preserve">
<g id="&#x6211;&#x7684;icon-off">
	<g>
		<path style="fill:#6A7B8F;" d="M22,7c4.204,0,7.625,3.68,7.625,8.203c0,1.994-0.681,3.921-1.918,5.425l-1.665,2.025l2.393,1.071
			c5.363,2.399,8.975,7.51,9.499,13.276H6.043c0.43-5.814,4.041-10.971,9.445-13.346l2.392-1.051l-1.64-2.035
			c-1.203-1.493-1.866-3.398-1.866-5.365C14.375,10.68,17.796,7,22,7 M22,5c-5.316,0-9.625,4.568-9.625,10.203
			c0,2.528,0.872,4.837,2.309,6.62C8.396,24.586,4,30.861,4,38.169V39h36v-0.544c0-7.384-4.418-13.725-10.749-16.557
			c1.474-1.793,2.374-4.13,2.374-6.695C31.625,9.568,27.316,5,22,5L22,5z"/>
	</g>
</g>
<g id="_x23__2_" style="opacity:0;">
	<g>
		<rect x="0" y="0" style="fill-rule:evenodd;clip-rule:evenodd;fill:#AA89BD;" width="44" height="44"/>
	</g>
</g>
</svg>
