<?xml version="1.0" encoding="iso-8859-1"?>
<!-- Generator: Adobe Illustrator 22.0.1, SVG Export Plug-In . SVG Version: 6.00 Build 0)  -->
<svg version="1.1" id="&#x56FE;&#x5C42;_1" xmlns="http://www.w3.org/2000/svg" xmlns:xlink="http://www.w3.org/1999/xlink" x="0px"
	 y="0px" viewBox="0 0 44 44" style="    stroke: none;enable-background:new 0 0 44 44;" xml:space="preserve">
<g>
	<g id="&#x5F62;&#x72B6;_1157">
		<g>
			<path style="fill-rule:evenodd;clip-rule:evenodd;fill:#0EA5F0;" d="M19.182,12.135c-1.627-1.34-4.138-3.827-4.211-6.455
				c0.871-0.337,2.632-0.928,4.273-0.928c0.236,0,0.46,0.012,0.672,0.037L19.182,12.135z"/>
		</g>
		<g>
			<path style="fill:#0EA5F0;" d="M18.813,5.766l-0.429,4.285c-1.048-1.082-2.022-2.397-2.321-3.701
				C16.819,6.101,17.829,5.831,18.813,5.766 M19.243,3.752C16.702,3.752,14,5,14,5c-0.531,4.763,6,9,6,9l1-10
				C20.45,3.823,19.851,3.752,19.243,3.752L19.243,3.752z"/>
		</g>
	</g>
	<g id="&#x5F62;&#x72B6;_1158">
		<g>
			<path style="fill-rule:evenodd;clip-rule:evenodd;fill:#0EA5F0;" d="M17.328,27.268c-2.469-2.005-7.944-7.484-8.315-16.89
				c0.548-0.578,1.884-1.914,3.367-2.877c0.73,2.353,2.666,7.343,6.539,9.994C18.672,19.18,17.975,23.865,17.328,27.268z"/>
		</g>
		<g>
			<path style="fill:#0EA5F0;" d="M11.87,9.103c0.949,2.572,2.8,6.419,5.97,8.845c-0.244,1.652-0.705,4.693-1.182,7.41
				c-2.524-2.427-6.208-7.192-6.628-14.599C10.497,10.288,11.149,9.676,11.87,9.103 M13,6c-2.546,1.222-5,4-5,4
				c0.31,13.123,10,19,10,19c0.878-4.097,2-12,2-12C14.795,13.905,13,6,13,6L13,6z"/>
		</g>
	</g>
	<g id="&#x5F62;&#x72B6;_1159">
		<g>
			<path style="fill-rule:evenodd;clip-rule:evenodd;fill:#0EA5F0;" d="M18,39.616c-2.663-0.986-8.865-3.837-11.787-9.789
				c-1.984-4.041-2.137-8.818-0.464-14.233C7.027,20.347,10.293,28.819,18,33.568V39.616z"/>
		</g>
		<g>
			<path style="fill:#0EA5F0;" d="M5.887,19.299C7.651,24.069,10.962,30.192,17,34.117v4.024c-2.882-1.259-7.514-3.928-9.883-8.742
				C5.667,26.454,5.258,23.073,5.887,19.299 M6,12c-9.674,23.014,13,29,13,29v-8C7.978,26.599,6,12,6,12L6,12z"/>
		</g>
	</g>
	<g id="&#x5F62;&#x72B6;_1160">
		<g>
			<path style="fill-rule:evenodd;clip-rule:evenodd;fill:#0EA5F0;" d="M23.917,5.041c1.35,0.114,3.945,0.53,6.441,2.051
				c-1.8,1.574-5.396,4.857-7.238,7.51L23.917,5.041z"/>
		</g>
		<g>
			<path style="fill:#0EA5F0;" d="M24.828,6.152c1.021,0.159,2.381,0.483,3.79,1.14c-1.294,1.165-2.857,2.648-4.232,4.166
				L24.828,6.152 M23.101,3.999C23.035,3.999,23,4,23,4l-1,12c-0.064,0.893,0.344,1.06,0.658,1.06C22.846,17.06,23,17,23,17
				c0.646-2.993,9-10,9-10C28.19,4.121,23.816,3.999,23.101,3.999L23.101,3.999z"/>
		</g>
	</g>
	<g id="&#x5F62;&#x72B6;_1161">
		<g>
			<path style="fill-rule:evenodd;clip-rule:evenodd;fill:#0EA5F0;" d="M22.185,28.926c0.612-3.101,3.037-11.831,11.755-19.552
				c1.081,1.167,3.243,3.747,3.974,6.396C34.949,19.568,27.389,28.004,22.185,28.926z"/>
		</g>
		<g>
			<path style="fill:#0EA5F0;" d="M33.865,10.792c1.049,1.242,2.328,3.024,2.938,4.775c-3.397,4.288-9.056,10.13-13.262,11.907
				C24.513,23.827,27.117,17.07,33.865,10.792 M34,8C22.099,18.073,21,30,21,30c0.098,0.006,0.197,0.008,0.296,0.008
				C28.33,30.009,39,16,39,16C38.131,11.924,34,8,34,8L34,8z"/>
		</g>
	</g>
	<g id="&#x5F62;&#x72B6;_1162">
		<g>
			<path style="fill-rule:evenodd;clip-rule:evenodd;fill:#0EA5F0;" d="M23.169,33.289c0.189,0.017,0.394,0.026,0.613,0.026
				c2.896,0,8.582-1.766,15.438-12.975c0.026,3.507-0.54,9.198-3.956,13.341c-2.586,3.138-6.413,4.908-11.387,5.27L23.169,33.289z"
				/>
		</g>
		<g>
			<path style="fill:#0EA5F0;" d="M38.015,24.018c-0.367,2.952-1.314,6.351-3.529,9.034c-2.24,2.714-5.511,4.328-9.737,4.812
				L24.303,34.3C27.672,34.104,32.46,31.949,38.015,24.018 M40,17c-7.376,13.387-13.375,15.315-16.218,15.315
				C22.633,32.315,22,32,22,32l1,8C43.504,39.233,40,17,40,17L40,17z"/>
		</g>
	</g>
	<g id="_x23__&#x62F7;&#x8D1D;" style="opacity:0;">
		<g>
			<rect x="0" y="0" style="fill-rule:evenodd;clip-rule:evenodd;fill:#AA89BD;" width="44" height="44"/>
		</g>
	</g>
</g>
</svg>
