<?xml version="1.0" encoding="iso-8859-1"?>
<!-- Generator: Adobe Illustrator 22.0.1, SVG Export Plug-In . SVG Version: 6.00 Build 0)  -->
<svg version="1.1" id="&#x56FE;&#x5C42;_1" xmlns="http://www.w3.org/2000/svg" xmlns:xlink="http://www.w3.org/1999/xlink" x="0px"
	 y="0px" viewBox="0 0 44 44" style="enable-background:new 0 0 44 44;" xml:space="preserve">
<g>
	<g id="&#x5F62;&#x72B6;_1157_1_">
		<g>
			<path style="fill:#6A7B8F;" d="M18.813,5.766l-0.429,4.285c-1.048-1.082-2.022-2.396-2.321-3.701
				C16.819,6.101,17.829,5.831,18.813,5.766 M19.243,3.752C16.702,3.752,14,5,14,5c-0.531,4.763,6,9,6,9l1-10
				C20.45,3.823,19.851,3.752,19.243,3.752L19.243,3.752z"/>
		</g>
	</g>
	<g id="&#x5F62;&#x72B6;_1158_1_">
		<g>
			<path style="fill:#6A7B8F;" d="M11.87,9.103c0.949,2.572,2.8,6.419,5.97,8.845c-0.244,1.652-0.705,4.693-1.182,7.41
				c-2.524-2.427-6.208-7.192-6.628-14.599C10.497,10.288,11.148,9.676,11.87,9.103 M13,6c-2.546,1.222-5,4-5,4
				c0.31,13.123,10,19,10,19c0.878-4.097,2-12,2-12C14.795,13.905,13,6,13,6L13,6z"/>
		</g>
	</g>
	<g id="&#x5F62;&#x72B6;_1159_1_">
		<g>
			<path style="fill:#6A7B8F;" d="M5.887,19.299C7.651,24.069,10.962,30.192,17,34.117v4.016c-2.893-1.271-7.544-3.957-9.896-8.76
				C5.665,26.433,5.26,23.062,5.887,19.299 M6,12c-9.674,23.014,13,29,13,29v-8C7.978,26.599,6,12,6,12L6,12z"/>
		</g>
	</g>
	<g id="&#x5F62;&#x72B6;_1160_1_">
		<g>
			<path style="fill:#6A7B8F;" d="M24.828,6.152c1.021,0.159,2.381,0.483,3.79,1.14c-1.294,1.165-2.857,2.648-4.232,4.166
				L24.828,6.152 M23.101,3.999C23.035,3.999,23,4,23,4l-1,12c-0.064,0.893,0.344,1.06,0.658,1.06C22.846,17.059,23,17,23,17
				c0.646-2.993,9-10,9-10C28.19,4.121,23.816,3.999,23.101,3.999L23.101,3.999z"/>
		</g>
	</g>
	<g id="&#x5F62;&#x72B6;_1161_1_">
		<g>
			<path style="fill:#6A7B8F;" d="M33.868,10.791c1.048,1.238,2.326,3.017,2.936,4.776c-3.394,4.283-9.044,10.119-13.25,11.902
				C24.541,23.808,27.163,17.034,33.868,10.791 M34,8C22.099,18.073,21,30,21,30c0.098,0.006,0.197,0.008,0.296,0.008
				C28.33,30.008,39,16,39,16C38.131,11.924,34,8,34,8L34,8z"/>
		</g>
	</g>
	<g id="&#x5F62;&#x72B6;_1162_1_">
		<g>
			<path style="fill:#6A7B8F;" d="M38.015,24.018c-0.367,2.952-1.314,6.351-3.529,9.034c-2.24,2.714-5.511,4.328-9.737,4.812
				L24.303,34.3C27.672,34.104,32.46,31.949,38.015,24.018 M40,17c-7.376,13.387-13.375,15.315-16.218,15.315
				C22.633,32.315,22,32,22,32l1,8C43.504,39.233,40,17,40,17L40,17z"/>
		</g>
	</g>
	<g id="_x23_" style="opacity:0;">
		<g>
			<rect x="0" y="0" style="fill-rule:evenodd;clip-rule:evenodd;fill:#AA89BD;" width="44" height="44"/>
		</g>
	</g>
</g>
</svg>
